<svg xmlns="http://www.w3.org/2000/svg" xmlns:xlink="http://www.w3.org/1999/xlink" viewBox="0 0 791.94 612.47"><defs><style>.cls-1{isolation:isolate;}.cls-16,.cls-17,.cls-18,.cls-19,.cls-2,.cls-20,.cls-29,.cls-3,.cls-30,.cls-31,.cls-32,.cls-33,.cls-4,.cls-42,.cls-43,.cls-44,.cls-45,.cls-46,.cls-5,.cls-6,.cls-7{mix-blend-mode:multiply;}.cls-16,.cls-17,.cls-18,.cls-19,.cls-20,.cls-29,.cls-3,.cls-30,.cls-31,.cls-32,.cls-33,.cls-4,.cls-42,.cls-43,.cls-44,.cls-45,.cls-46,.cls-5,.cls-6,.cls-7{stroke:#040505;}.cls-10,.cls-11,.cls-12,.cls-13,.cls-14,.cls-15,.cls-16,.cls-17,.cls-18,.cls-19,.cls-20,.cls-21,.cls-22,.cls-23,.cls-24,.cls-25,.cls-26,.cls-27,.cls-28,.cls-29,.cls-3,.cls-30,.cls-31,.cls-32,.cls-33,.cls-34,.cls-35,.cls-36,.cls-37,.cls-38,.cls-39,.cls-4,.cls-40,.cls-41,.cls-42,.cls-43,.cls-44,.cls-45,.cls-46,.cls-47,.cls-48,.cls-49,.cls-5,.cls-50,.cls-51,.cls-52,.cls-53,.cls-54,.cls-6,.cls-7,.cls-8,.cls-9{stroke-linejoin:bevel;}.cls-10,.cls-11,.cls-12,.cls-13,.cls-14,.cls-15,.cls-16,.cls-17,.cls-18,.cls-19,.cls-20,.cls-21,.cls-22,.cls-23,.cls-24,.cls-25,.cls-26,.cls-27,.cls-28,.cls-3,.cls-4,.cls-5,.cls-6,.cls-7,.cls-8,.cls-9{stroke-width:0.39px;}.cls-3{fill:url(#Dégradé_sans_nom_55);}.cls-4{fill:url(#Dégradé_sans_nom_250);}.cls-5{fill:url(#Dégradé_sans_nom_236);}.cls-6{fill:url(#Dégradé_sans_nom_220);}.cls-7{fill:url(#Dégradé_sans_nom_212);}.cls-10,.cls-11,.cls-12,.cls-13,.cls-14,.cls-15,.cls-21,.cls-22,.cls-23,.cls-24,.cls-25,.cls-26,.cls-27,.cls-28,.cls-34,.cls-35,.cls-36,.cls-37,.cls-38,.cls-39,.cls-40,.cls-41,.cls-47,.cls-48,.cls-49,.cls-50,.cls-51,.cls-52,.cls-53,.cls-54,.cls-8,.cls-9{stroke:#9a8dbf;}.cls-8{fill:url(#Dégradé_sans_nom_54);}.cls-9{fill:url(#Dégradé_sans_nom_54-2);}.cls-10{fill:url(#Dégradé_sans_nom_54-3);}.cls-11{fill:url(#Dégradé_sans_nom_54-4);}.cls-12{fill:url(#Dégradé_sans_nom_54-5);}.cls-13{fill:url(#Dégradé_sans_nom_54-6);}.cls-14{fill:url(#Dégradé_sans_nom_54-7);}.cls-15{fill:url(#Dégradé_sans_nom_54-8);}.cls-16{fill:url(#Dégradé_sans_nom_55-2);}.cls-17{fill:url(#Dégradé_sans_nom_250-2);}.cls-18{fill:url(#Dégradé_sans_nom_236-2);}.cls-19{fill:url(#Dégradé_sans_nom_220-2);}.cls-20{fill:url(#Dégradé_sans_nom_212-2);}.cls-21{fill:url(#Dégradé_sans_nom_54-9);}.cls-22{fill:url(#Dégradé_sans_nom_54-10);}.cls-23{fill:url(#Dégradé_sans_nom_54-11);}.cls-24{fill:url(#Dégradé_sans_nom_54-12);}.cls-25{fill:url(#Dégradé_sans_nom_54-13);}.cls-26{fill:url(#Dégradé_sans_nom_54-14);}.cls-27{fill:url(#Dégradé_sans_nom_54-15);}.cls-28{fill:url(#Dégradé_sans_nom_54-16);}.cls-29,.cls-30,.cls-31,.cls-32,.cls-33,.cls-34,.cls-35,.cls-36,.cls-37,.cls-38,.cls-39,.cls-40,.cls-41,.cls-42,.cls-43,.cls-44,.cls-45,.cls-46,.cls-47,.cls-48,.cls-49,.cls-50,.cls-51,.cls-52,.cls-53,.cls-54{stroke-width:0.39px;}.cls-29{fill:url(#Dégradé_sans_nom_55-3);}.cls-30{fill:url(#Dégradé_sans_nom_250-3);}.cls-31{fill:url(#Dégradé_sans_nom_236-3);}.cls-32{fill:url(#Dégradé_sans_nom_220-3);}.cls-33{fill:url(#Dégradé_sans_nom_212-3);}.cls-34{fill:url(#Dégradé_sans_nom_54-17);}.cls-35{fill:url(#Dégradé_sans_nom_54-18);}.cls-36{fill:url(#Dégradé_sans_nom_54-19);}.cls-37{fill:url(#Dégradé_sans_nom_54-20);}.cls-38{fill:url(#Dégradé_sans_nom_54-21);}.cls-39{fill:url(#Dégradé_sans_nom_54-22);}.cls-40{fill:url(#Dégradé_sans_nom_54-23);}.cls-41{fill:url(#Dégradé_sans_nom_54-24);}.cls-42{fill:url(#Dégradé_sans_nom_55-4);}.cls-43{fill:url(#Dégradé_sans_nom_250-4);}.cls-44{fill:url(#Dégradé_sans_nom_236-4);}.cls-45{fill:url(#Dégradé_sans_nom_220-4);}.cls-46{fill:url(#Dégradé_sans_nom_212-4);}.cls-47{fill:url(#Dégradé_sans_nom_54-25);}.cls-48{fill:url(#Dégradé_sans_nom_54-26);}.cls-49{fill:url(#Dégradé_sans_nom_54-27);}.cls-50{fill:url(#Dégradé_sans_nom_54-28);}.cls-51{fill:url(#Dégradé_sans_nom_54-29);}.cls-52{fill:url(#Dégradé_sans_nom_54-30);}.cls-53{fill:url(#Dégradé_sans_nom_54-31);}.cls-54{fill:url(#Dégradé_sans_nom_54-32);}</style><linearGradient id="Dégradé_sans_nom_55" x1="-9638.7" y1="-5009.15" x2="-9618.55" y2="-5040.98" gradientTransform="matrix(1, 0, 0, -1, 10415.1, -4890.77)" gradientUnits="userSpaceOnUse"><stop offset="0" stop-color="#403283"/><stop offset="0.3" stop-color="#2f245c"/><stop offset="0.58" stop-color="#221a3f"/><stop offset="0.82" stop-color="#1b142d"/><stop offset="1" stop-color="#181227"/></linearGradient><linearGradient id="Dégradé_sans_nom_250" x1="-9734.51" y1="-4968.3" x2="-9623.55" y2="-4968.3" gradientTransform="matrix(1, 0, 0, -1, 10415.1, -4890.77)" gradientUnits="userSpaceOnUse"><stop offset="0" stop-color="#403283"/><stop offset="0.35" stop-color="#332865"/><stop offset="1" stop-color="#181227"/></linearGradient><linearGradient id="Dégradé_sans_nom_236" x1="-9676.1" y1="-4910.89" x2="-9680.71" y2="-4995.78" gradientTransform="matrix(1, 0, 0, -1, 10415.1, -4890.77)" gradientUnits="userSpaceOnUse"><stop offset="0" stop-color="#403283"/><stop offset="0.25" stop-color="#382c71"/><stop offset="0.75" stop-color="#231b41"/><stop offset="1" stop-color="#181227"/></linearGradient><linearGradient id="Dégradé_sans_nom_220" x1="-9710.72" y1="-4897.9" x2="-9645.25" y2="-4947.94" gradientTransform="matrix(1, 0, 0, -1, 10415.1, -4890.77)" gradientUnits="userSpaceOnUse"><stop offset="0" stop-color="#403283"/><stop offset="0.31" stop-color="#35296a"/><stop offset="0.97" stop-color="#19132a"/><stop offset="1" stop-color="#181227"/></linearGradient><linearGradient id="Dégradé_sans_nom_212" x1="-9723.52" y1="-4924.64" x2="-9642.87" y2="-4885.46" gradientTransform="matrix(1, 0, 0, -1, 10415.1, -4890.77)" gradientUnits="userSpaceOnUse"><stop offset="0" stop-color="#403283"/><stop offset="0.21" stop-color="#3e317f"/><stop offset="0.42" stop-color="#392c73"/><stop offset="0.63" stop-color="#30265f"/><stop offset="0.83" stop-color="#241c43"/><stop offset="1" stop-color="#181227"/></linearGradient><linearGradient id="Dégradé_sans_nom_54" x1="1316.17" y1="-598.32" x2="1355.73" y2="-598.32" gradientTransform="matrix(0, 1, 1, 0, 1325.17, -1235.75)" gradientUnits="userSpaceOnUse"><stop offset="0" stop-color="#644797" stop-opacity="0.2"/><stop offset="1" stop-color="#040505" stop-opacity="0.2"/></linearGradient><linearGradient id="Dégradé_sans_nom_54-2" x1="1345.27" y1="-586.44" x2="1376.07" y2="-586.44" xlink:href="#Dégradé_sans_nom_54"/><linearGradient id="Dégradé_sans_nom_54-3" x1="1392.2" y1="-552.98" x2="1435.2" y2="-552.98" xlink:href="#Dégradé_sans_nom_54"/><linearGradient id="Dégradé_sans_nom_54-4" x1="1376.07" y1="-552.98" x2="1403.61" y2="-552.98" xlink:href="#Dégradé_sans_nom_54"/><linearGradient id="Dégradé_sans_nom_54-5" x1="1435.2" y1="-542.42" x2="1472.24" y2="-542.42" xlink:href="#Dégradé_sans_nom_54"/><linearGradient id="Dégradé_sans_nom_54-6" x1="1355.73" y1="-586.44" x2="1392.2" y2="-586.44" xlink:href="#Dégradé_sans_nom_54"/><linearGradient id="Dégradé_sans_nom_54-7" x1="1392.2" y1="-552.98" x2="1452.24" y2="-552.98" xlink:href="#Dégradé_sans_nom_54"/><linearGradient id="Dégradé_sans_nom_54-8" x1="1452.24" y1="-542.42" x2="1503.64" y2="-542.42" xlink:href="#Dégradé_sans_nom_54"/><linearGradient id="Dégradé_sans_nom_55-2" x1="-9638.63" y1="5340.13" x2="-9618.2" y2="5307.85" gradientTransform="translate(10415.1 -4845.83)" xlink:href="#Dégradé_sans_nom_55"/><linearGradient id="Dégradé_sans_nom_250-2" x1="-9734.33" y1="5381.45" x2="-9623.36" y2="5381.45" gradientTransform="translate(10415.1 -4845.83)" xlink:href="#Dégradé_sans_nom_250"/><linearGradient id="Dégradé_sans_nom_236-2" x1="-9675.95" y1="5437.51" x2="-9680.56" y2="5352.66" gradientTransform="translate(10415.1 -4845.83)" xlink:href="#Dégradé_sans_nom_236"/><linearGradient id="Dégradé_sans_nom_220-2" x1="-9710.48" y1="5451.13" x2="-9644.71" y2="5400.86" gradientTransform="translate(10415.1 -4845.83)" xlink:href="#Dégradé_sans_nom_220"/><linearGradient id="Dégradé_sans_nom_212-2" x1="-9723.21" y1="5424.14" x2="-9642.56" y2="5463.32" gradientTransform="translate(10415.1 -4845.83)" xlink:href="#Dégradé_sans_nom_212"/><linearGradient id="Dégradé_sans_nom_54-9" x1="-9033.58" y1="-598.13" x2="-8994.02" y2="-598.13" gradientTransform="translate(1325.17 -8500.85) rotate(-90)" xlink:href="#Dégradé_sans_nom_54"/><linearGradient id="Dégradé_sans_nom_54-10" x1="-9004.47" y1="-586.26" x2="-8973.68" y2="-586.26" gradientTransform="translate(1325.17 -8500.85) rotate(-90)" xlink:href="#Dégradé_sans_nom_54"/><linearGradient id="Dégradé_sans_nom_54-11" x1="-8957.54" y1="-552.8" x2="-8913.41" y2="-552.8" gradientTransform="translate(1325.17 -8500.85) rotate(-90)" xlink:href="#Dégradé_sans_nom_54"/><linearGradient id="Dégradé_sans_nom_54-12" x1="-8973.68" y1="-552.8" x2="-8944.92" y2="-552.8" gradientTransform="translate(1325.17 -8500.85) rotate(-90)" xlink:href="#Dégradé_sans_nom_54"/><linearGradient id="Dégradé_sans_nom_54-13" x1="-8913.41" y1="-542.24" x2="-8877.51" y2="-542.24" gradientTransform="translate(1325.17 -8500.85) rotate(-90)" xlink:href="#Dégradé_sans_nom_54"/><linearGradient id="Dégradé_sans_nom_54-14" x1="-8994.02" y1="-586.26" x2="-8957.54" y2="-586.26" gradientTransform="translate(1325.17 -8500.85) rotate(-90)" xlink:href="#Dégradé_sans_nom_54"/><linearGradient id="Dégradé_sans_nom_54-15" x1="-8957.54" y1="-552.8" x2="-8897.5" y2="-552.8" gradientTransform="translate(1325.17 -8500.85) rotate(-90)" xlink:href="#Dégradé_sans_nom_54"/><linearGradient id="Dégradé_sans_nom_54-16" x1="-8897.5" y1="-542.24" x2="-8845" y2="-542.24" gradientTransform="translate(1325.17 -8500.85) rotate(-90)" xlink:href="#Dégradé_sans_nom_54"/><linearGradient id="Dégradé_sans_nom_55-3" x1="-7393.99" y1="-5009.31" x2="-7373.75" y2="-5041.28" gradientTransform="translate(-7378.16 -4890.77) rotate(180)" xlink:href="#Dégradé_sans_nom_55"/><linearGradient id="Dégradé_sans_nom_250-3" x1="-7490.17" y1="-4968.65" x2="-7378.36" y2="-4968.65" gradientTransform="translate(-7378.16 -4890.77) rotate(180)" xlink:href="#Dégradé_sans_nom_250"/><linearGradient id="Dégradé_sans_nom_236-3" x1="-7431.33" y1="-4911.2" x2="-7435.94" y2="-4995.99" gradientTransform="translate(-7378.16 -4890.77) rotate(180)" xlink:href="#Dégradé_sans_nom_236"/><linearGradient id="Dégradé_sans_nom_220-3" x1="-7466.17" y1="-4898.12" x2="-7400.2" y2="-4948.55" gradientTransform="translate(-7378.16 -4890.77) rotate(180)" xlink:href="#Dégradé_sans_nom_220"/><linearGradient id="Dégradé_sans_nom_212-3" x1="-7478.73" y1="-4924.81" x2="-7397.7" y2="-4885.45" gradientTransform="translate(-7378.16 -4890.77) rotate(180)" xlink:href="#Dégradé_sans_nom_212"/><linearGradient id="Dégradé_sans_nom_54-17" x1="1316.51" y1="1646.03" x2="1355.98" y2="1646.03" gradientTransform="translate(1711.77 -1235.75) rotate(90)" xlink:href="#Dégradé_sans_nom_54"/><linearGradient id="Dégradé_sans_nom_54-18" x1="1345.55" y1="1657.9" x2="1376.27" y2="1657.9" gradientTransform="translate(1711.77 -1235.75) rotate(90)" xlink:href="#Dégradé_sans_nom_54"/><linearGradient id="Dégradé_sans_nom_54-19" x1="1392.36" y1="1691.78" x2="1435.23" y2="1691.78" gradientTransform="translate(1711.77 -1235.75) rotate(90)" xlink:href="#Dégradé_sans_nom_54"/><linearGradient id="Dégradé_sans_nom_54-20" x1="1376.27" y1="1691.78" x2="1403.72" y2="1691.78" gradientTransform="translate(1711.77 -1235.75) rotate(90)" xlink:href="#Dégradé_sans_nom_54"/><linearGradient id="Dégradé_sans_nom_54-21" x1="1435.23" y1="1702.34" x2="1472.2" y2="1702.34" gradientTransform="translate(1711.77 -1235.75) rotate(90)" xlink:href="#Dégradé_sans_nom_54"/><linearGradient id="Dégradé_sans_nom_54-22" x1="1355.98" y1="1657.9" x2="1392.36" y2="1657.9" gradientTransform="translate(1711.77 -1235.75) rotate(90)" xlink:href="#Dégradé_sans_nom_54"/><linearGradient id="Dégradé_sans_nom_54-23" x1="1392.36" y1="1691.78" x2="1452.26" y2="1691.78" gradientTransform="translate(1711.77 -1235.75) rotate(90)" xlink:href="#Dégradé_sans_nom_54"/><linearGradient id="Dégradé_sans_nom_54-24" x1="1452.26" y1="1702.34" x2="1503.48" y2="1702.34" gradientTransform="translate(1711.77 -1235.75) rotate(90)" xlink:href="#Dégradé_sans_nom_54"/><linearGradient id="Dégradé_sans_nom_55-4" x1="-7393.96" y1="5339.7" x2="-7373.56" y2="5307.48" gradientTransform="matrix(-1, 0, 0, 1, -7378.16, -4845.83)" xlink:href="#Dégradé_sans_nom_55"/><linearGradient id="Dégradé_sans_nom_250-4" x1="-7489.99" y1="5380.68" x2="-7378.36" y2="5380.68" gradientTransform="matrix(-1, 0, 0, 1, -7378.16, -4845.83)" xlink:href="#Dégradé_sans_nom_250"/><linearGradient id="Dégradé_sans_nom_236-4" x1="-7431.26" y1="5437.3" x2="-7435.87" y2="5352.51" gradientTransform="matrix(-1, 0, 0, 1, -7378.16, -4845.83)" xlink:href="#Dégradé_sans_nom_236"/><linearGradient id="Dégradé_sans_nom_220-4" x1="-7466.09" y1="5450.8" x2="-7399.95" y2="5400.25" gradientTransform="matrix(-1, 0, 0, 1, -7378.16, -4845.83)" xlink:href="#Dégradé_sans_nom_220"/><linearGradient id="Dégradé_sans_nom_212-4" x1="-7478.46" y1="5424.07" x2="-7397.55" y2="5463.38" gradientTransform="matrix(-1, 0, 0, 1, -7378.16, -4845.83)" xlink:href="#Dégradé_sans_nom_212"/><linearGradient id="Dégradé_sans_nom_54-25" x1="-9032.82" y1="1646.21" x2="-8993.35" y2="1646.21" gradientTransform="matrix(0, -1, -1, 0, 1711.77, -8500.85)" xlink:href="#Dégradé_sans_nom_54"/><linearGradient id="Dégradé_sans_nom_54-26" x1="-9003.78" y1="1658.08" x2="-8973.06" y2="1658.08" gradientTransform="matrix(0, -1, -1, 0, 1711.77, -8500.85)" xlink:href="#Dégradé_sans_nom_54"/><linearGradient id="Dégradé_sans_nom_54-27" x1="-8956.97" y1="1691.87" x2="-8913.31" y2="1691.87" gradientTransform="matrix(0, -1, -1, 0, 1711.77, -8500.85)" xlink:href="#Dégradé_sans_nom_54"/><linearGradient id="Dégradé_sans_nom_54-28" x1="-8973.06" y1="1691.87" x2="-8944.8" y2="1691.87" gradientTransform="matrix(0, -1, -1, 0, 1711.77, -8500.85)" xlink:href="#Dégradé_sans_nom_54"/><linearGradient id="Dégradé_sans_nom_54-29" x1="-8913.31" y1="1702.43" x2="-8877.13" y2="1702.43" gradientTransform="matrix(0, -1, -1, 0, 1711.77, -8500.85)" xlink:href="#Dégradé_sans_nom_54"/><linearGradient id="Dégradé_sans_nom_54-30" x1="-8993.35" y1="1658.08" x2="-8956.97" y2="1658.08" gradientTransform="matrix(0, -1, -1, 0, 1711.77, -8500.85)" xlink:href="#Dégradé_sans_nom_54"/><linearGradient id="Dégradé_sans_nom_54-31" x1="-8956.97" y1="1691.87" x2="-8897.07" y2="1691.87" gradientTransform="matrix(0, -1, -1, 0, 1711.77, -8500.85)" xlink:href="#Dégradé_sans_nom_54"/><linearGradient id="Dégradé_sans_nom_54-32" x1="-8897.07" y1="1702.43" x2="-8844.9" y2="1702.43" gradientTransform="matrix(0, -1, -1, 0, 1711.77, -8500.85)" xlink:href="#Dégradé_sans_nom_54"/></defs><title>cotes_section2</title><g class="cls-1"><g id="Calque_2" data-name="Calque 2"><g id="votre_travail" data-name="votre travail"><g class="cls-2"><polygon class="cls-3" points="791.55 102.61 745.66 109.52 791.55 167.86 791.55 102.61"/><polygon class="cls-4" points="791.55 102.61 680.59 45.53 745.66 109.52 791.55 102.61"/><polygon class="cls-5" points="791.55 17.18 680.59 45.53 791.55 102.61 791.55 17.18"/><polyline class="cls-6" points="791.55 17.18 680.59 45.53 694.96 0.35"/><polygon class="cls-7" points="791.55 17.18 791.55 0.35 694.96 0.35 791.55 17.18"/></g><g class="cls-2"><polygon class="cls-8" points="715.68 80.42 708.04 119.98 745.66 109.52 715.68 80.42"/><polygon class="cls-9" points="769.41 140.32 708.04 119.98 745.66 109.52 769.41 140.32"/><polygon class="cls-10" points="791.55 167.86 791.55 199.45 752.82 156.45 791.55 167.86"/><polygon class="cls-11" points="769.41 140.32 752.82 156.45 791.55 167.86 769.41 140.32"/><polygon class="cls-12" points="791.55 199.45 791.55 236.49 773.93 216.5 791.55 199.45"/><polygon class="cls-13" points="708.04 119.98 752.82 156.45 769.41 140.32 708.04 119.98"/><polygon class="cls-14" points="773.93 216.5 752.82 156.45 791.55 199.45 773.93 216.5"/><polygon class="cls-15" points="791.55 267.89 773.93 216.5 791.55 236.49 791.55 267.89"/></g><g class="cls-2"><polygon class="cls-16" points="791.74 509.23 745.85 503.62 791.74 444.07 791.74 509.23"/><polygon class="cls-17" points="791.74 509.23 680.77 567.62 745.85 503.62 791.74 509.23"/><polygon class="cls-18" points="791.74 594.62 680.77 567.62 791.74 509.23 791.74 594.62"/><polyline class="cls-19" points="791.74 594.62 680.77 567.62 695.14 612.09"/><polygon class="cls-20" points="791.74 594.62 791.74 612.09 695.14 612.09 791.74 594.62"/></g><g class="cls-2"><polygon class="cls-21" points="715.87 532.73 708.22 493.17 745.85 503.62 715.87 532.73"/><polygon class="cls-22" points="769.6 472.82 708.22 493.17 745.85 503.62 769.6 472.82"/><polygon class="cls-23" points="791.74 444.07 791.74 412.55 753 456.69 791.74 444.07"/><polygon class="cls-24" points="769.6 472.82 753 456.69 791.74 444.07 769.6 472.82"/><polygon class="cls-25" points="791.74 412.55 791.74 376.66 774.12 396.65 791.74 412.55"/><polygon class="cls-26" points="708.22 493.17 753 456.69 769.6 472.82 708.22 493.17"/><polygon class="cls-27" points="774.12 396.65 753 456.69 791.74 412.55 774.12 396.65"/><polygon class="cls-28" points="791.74 344.15 774.12 396.65 791.74 376.66 791.74 344.15"/></g><g class="cls-2"><polygon class="cls-29" points="0.2 102.85 46.93 109.8 0.2 167.97 0.2 102.85"/><polygon class="cls-30" points="0.2 102.85 112.01 45.96 46.93 109.8 0.2 102.85"/><polygon class="cls-31" points="0.2 17.52 112.01 45.96 0.2 102.85 0.2 17.52"/><polyline class="cls-32" points="0.2 17.52 112.01 45.96 97.26 0.2"/><polygon class="cls-33" points="0.2 17.52 0.2 0.2 97.26 0.2 0.2 17.52"/></g><g class="cls-2"><polygon class="cls-34" points="76.91 80.77 84.55 120.23 46.93 109.8 76.91 80.77"/><polygon class="cls-35" points="23.18 140.52 84.55 120.23 46.93 109.8 23.18 140.52"/><polygon class="cls-36" points="0.2 167.97 0.2 199.48 39.77 156.61 0.2 167.97"/><polygon class="cls-37" points="23.18 140.52 39.77 156.61 0.2 167.97 23.18 140.52"/><polygon class="cls-38" points="0.2 199.48 0.2 236.45 18.66 216.51 0.2 199.48"/><polygon class="cls-39" points="84.55 120.23 39.77 156.61 23.18 140.52 84.55 120.23"/><polygon class="cls-40" points="18.66 216.51 39.77 156.61 0.2 199.48 18.66 216.51"/><polygon class="cls-41" points="0.2 267.73 18.66 216.51 0.2 236.45 0.2 267.73"/></g><g class="cls-2"><polygon class="cls-42" points="0.2 509.05 46.75 502.93 0.2 443.95 0.2 509.05"/><polygon class="cls-43" points="0.2 509.05 111.82 566.77 46.75 502.93 0.2 509.05"/><polygon class="cls-44" points="0.2 594.38 111.82 566.77 0.2 509.05 0.2 594.38"/><polyline class="cls-45" points="0.2 594.38 111.82 566.77 97.11 612.27"/><polygon class="cls-46" points="0.2 594.38 0.2 612.27 97.11 612.27 0.2 594.38"/></g><g class="cls-2"><polygon class="cls-47" points="76.73 531.96 84.37 492.5 46.75 502.93 76.73 531.96"/><polygon class="cls-48" points="23 472.21 84.37 492.5 46.75 502.93 23 472.21"/><polygon class="cls-49" points="0.2 443.95 0.2 412.45 39.59 456.11 0.2 443.95"/><polygon class="cls-50" points="23 472.21 39.59 456.11 0.2 443.95 23 472.21"/><polygon class="cls-51" points="0.2 412.45 0.2 376.28 18.48 396.22 0.2 412.45"/><polygon class="cls-52" points="84.37 492.5 39.59 456.11 23 472.21 84.37 492.5"/><polygon class="cls-53" points="18.48 396.22 39.59 456.11 0.2 412.45 18.48 396.22"/><polygon class="cls-54" points="0.2 344.05 18.48 396.22 0.2 376.28 0.2 344.05"/></g></g></g></g></svg>