<svg xmlns="http://www.w3.org/2000/svg" viewBox="0 0 585.04 585.29"><defs><style>.cls-1,.cls-2{fill:#fff;}.cls-1{opacity:0.06;}.cls-3,.cls-4,.cls-5{fill:none;}.cls-3,.cls-4{stroke:#fff;stroke-miterlimit:10;stroke-width:2px;}.cls-4{stroke-dasharray:19.91 19.91;}</style></defs><title>fond_etoiles</title><g id="Calque_2" data-name="Calque 2"><g id="Calque_1-2" data-name="Calque 1"><path class="cls-1" d="M557.51,584A430.94,430.94,0,0,0,585,431.94C585,193.39,391.66,0,153.1,0A431.09,431.09,0,0,0,1.5,27.35L.86,584H557.51"/><path class="cls-2" d="M177.12,341.07c15.44.56,18-6.14,18-16.37-.11,11,5.21,17.11,15.82,16.37-10.61-.37-15.82,7.63-15.82,15.63C195,348.88,192.19,341.63,177.12,341.07Z"/><path class="cls-2" d="M201.27,537.37c8.32.3,9.73-3.31,9.73-8.82-.06,5.91,2.81,9.22,8.52,8.82-5.71-.2-8.52,4.11-8.52,8.43C210.9,541.58,209.39,537.67,201.27,537.37Z"/><path class="cls-2" d="M84.85,417.37c9.55.35,11.16-3.79,11.16-10.12-.06,6.79,3.22,10.58,9.78,10.13C99.23,417.14,96,422.09,96,427,95.9,422.2,94.17,417.72,84.85,417.37Z"/><path class="cls-2" d="M97.63,480.76c7.44.27,8.7-3,8.7-7.89,0,5.29,2.51,8.25,7.62,7.89-5.11-.18-7.62,3.68-7.62,7.53C106.24,484.53,104.89,481,97.63,480.76Z"/><path class="cls-2" d="M82.09,227.06c7.09.26,8.28-2.82,8.28-7.51-.05,5,2.39,7.85,7.26,7.51-4.87-.17-7.26,3.5-7.26,7.17C90.29,230.65,89,227.32,82.09,227.06Z"/><path class="cls-2" d="M43.34,219.66c4.64.17,5.43-1.85,5.43-4.92,0,3.3,1.56,5.14,4.75,4.92a4.44,4.44,0,0,0-4.75,4.7C48.71,222,47.87,219.83,43.34,219.66Z"/><path class="cls-2" d="M66.77,118.06c8.35.3,9.76-3.32,9.76-8.86,0,5.94,2.82,9.26,8.56,8.86-5.74-.2-8.56,4.13-8.56,8.46C76.43,122.29,74.92,118.36,66.77,118.06Z"/><path class="cls-2" d="M61.77,583.63A36,36,0,0,0,56,583c15.44.56,18-6.14,18-16.37-.11,11,5.21,17.12,15.81,16.38a14.89,14.89,0,0,0-5.81.63Z"/><path class="cls-2" d="M68.39,331c3.18.12,3.72-1.26,3.72-3.37,0,2.26,1.07,3.53,3.26,3.38a3,3,0,0,0-3.26,3.22C72.07,332.58,71.49,331.08,68.39,331Z"/><path class="cls-2" d="M25.4,385.89c4.41.16,5.16-1.76,5.16-4.68,0,3.14,1.49,4.89,4.52,4.68a4.22,4.22,0,0,0-4.52,4.47C30.5,388.12,29.71,386.05,25.4,385.89Z"/><path class="cls-2" d="M1.18,431.55A6.57,6.57,0,0,0,2,427.89c0,3.6,1.71,5.62,5.19,5.38A4.84,4.84,0,0,0,2,438.4a5.77,5.77,0,0,0-.73-2.93Z"/><path class="cls-1" d="M1.44,133.66a350.83,350.83,0,0,1,124.69-22.75c194.2,0,351.64,157.44,351.64,351.64a350.8,350.8,0,0,1-21.34,120.91L1.6,583.63Z"/><path class="cls-1" d="M84.05,583.63h210.8a202.13,202.13,0,0,0,51.84-135.45c0-112-90.83-202.88-202.88-202.88A202.25,202.25,0,0,0,1.18,303.9"/><polyline class="cls-1" points="1.18 303.9 1.6 583.63 84.06 583.63"/><path class="cls-3" d="M.54,219.55q4.22-2.69,8.53-5.22"/><path class="cls-4" d="M26.61,204.91a266,266,0,0,1,117.2-27c147.42,0,266.92,119.5,266.92,266.91a265.8,265.8,0,0,1-29.36,121.84"/><path class="cls-3" d="M376.66,575.39q-2.46,4.36-5.07,8.62"/><path class="cls-2" d="M336.84,502.43c15.44.55,18.05-6.14,18.05-16.38-.11,11,5.21,17.12,15.81,16.38-10.6-.38-15.81,7.62-15.81,15.62C354.7,510.24,351.91,503,336.84,502.43Z"/><path class="cls-2" d="M319.91,137.69c10.54.38,12.32-4.19,12.32-11.17-.08,7.49,3.55,11.68,10.79,11.17-7.24-.26-10.79,5.2-10.79,10.66C332.1,143,330.19,138.07,319.91,137.69Z"/><path class="cls-2" d="M302.46,428.14c10.54.38,12.32-4.19,12.32-11.17-.08,7.49,3.55,11.68,10.79,11.17-7.24-.25-10.79,5.21-10.79,10.66C314.65,433.47,312.75,428.52,302.46,428.14Z"/><path class="cls-2" d="M265.36,251.18c5.6.2,6.54-2.22,6.54-5.93,0,4,1.89,6.2,5.73,5.93a5.36,5.36,0,0,0-5.73,5.66C271.84,254,270.83,251.38,265.36,251.18Z"/><path class="cls-2" d="M460.84,304.11c8.23.29,9.62-3.27,9.62-8.73-.06,5.85,2.77,9.12,8.43,8.73-5.66-.2-8.43,4.06-8.43,8.33C470.36,308.27,468.87,304.4,460.84,304.11Z"/><polyline class="cls-5" points="0.86 133.88 0.86 219.34 0.86 585.29"/><line class="cls-5" x1="0.86" y1="435.81" x2="0.86" y2="431.94"/><polyline class="cls-5" points="456.74 582.62 0.86 582.62 0.86 435.81"/></g></g></svg>