<svg xmlns="http://www.w3.org/2000/svg" viewBox="0 0 51.43 38.57"><defs><style>.cls-1{fill:#fff;}</style></defs><title>meteor</title><g id="Calque_2" data-name="Calque 2"><g id="Calque_1-2" data-name="Calque 1"><rect class="cls-1" y="8.57" width="4.29" height="4.29"/><rect class="cls-1" x="4.29" y="4.29" width="4.29" height="4.29"/><rect class="cls-1" x="8.57" y="4.29" width="4.29" height="4.29"/><rect class="cls-1" x="8.57" width="4.29" height="4.29"/><rect class="cls-1" x="12.86" width="4.29" height="4.29"/><rect class="cls-1" x="17.14" width="4.29" height="4.29"/><rect class="cls-1" x="21.43" width="4.29" height="4.29"/><rect class="cls-1" x="25.72" width="4.29" height="4.29"/><rect class="cls-1" x="25.72" y="4.29" width="4.29" height="4.29"/><rect class="cls-1" x="21.43" y="4.29" width="4.29" height="4.29"/><rect class="cls-1" x="21.43" y="8.57" width="4.29" height="4.29"/><rect class="cls-1" x="17.14" y="8.57" width="4.29" height="4.29"/><rect class="cls-1" x="17.14" y="12.86" width="4.29" height="4.29"/><rect class="cls-1" x="12.86" y="12.86" width="4.29" height="4.29"/><rect class="cls-1" x="12.86" y="17.14" width="4.29" height="4.29"/><rect class="cls-1" x="12.86" y="21.43" width="4.29" height="4.29"/><rect class="cls-1" x="8.57" y="21.43" width="4.29" height="4.29"/><rect class="cls-1" x="4.29" y="21.43" width="4.29" height="4.29"/><rect class="cls-1" y="21.43" width="4.29" height="4.29"/><rect class="cls-1" y="17.14" width="4.29" height="4.29"/><rect class="cls-1" y="12.86" width="4.29" height="4.29"/><rect class="cls-1" x="4.29" y="25.72" width="4.29" height="4.29"/><rect class="cls-1" x="8.57" y="25.72" width="4.29" height="4.29"/><rect class="cls-1" x="12.86" y="25.72" width="4.29" height="4.29"/><rect class="cls-1" x="17.14" y="25.72" width="4.29" height="4.29"/><rect class="cls-1" x="21.43" y="25.72" width="4.29" height="4.29"/><rect class="cls-1" x="21.43" y="30" width="4.29" height="4.29"/><rect class="cls-1" x="21.43" y="34.29" width="4.29" height="4.29"/><rect class="cls-1" x="25.72" y="34.29" width="4.29" height="4.29"/><rect class="cls-1" x="30" y="34.29" width="4.29" height="4.29"/><rect class="cls-1" x="34.29" y="34.29" width="4.29" height="4.29"/><rect class="cls-1" x="38.57" y="34.29" width="4.29" height="4.29"/><rect class="cls-1" x="38.57" y="30" width="4.29" height="4.29"/><rect class="cls-1" x="38.57" y="25.72" width="4.29" height="4.29"/><rect class="cls-1" x="38.57" y="21.43" width="4.29" height="4.29"/><rect class="cls-1" x="38.57" y="17.14" width="4.29" height="4.29"/><rect class="cls-1" x="38.57" y="12.86" width="4.29" height="4.29"/><rect class="cls-1" x="34.29" y="12.86" width="4.29" height="4.29"/><rect class="cls-1" x="30" y="12.86" width="4.29" height="4.29"/><rect class="cls-1" x="25.72" y="12.86" width="4.29" height="4.29"/><rect class="cls-1" x="21.43" y="12.86" width="4.29" height="4.29"/><rect class="cls-1" x="21.43" y="17.14" width="4.29" height="4.29"/><rect class="cls-1" x="17.14" y="17.14" width="4.29" height="4.29"/><rect class="cls-1" x="17.14" y="21.43" width="4.29" height="4.29"/><rect class="cls-1" x="21.43" y="21.43" width="4.29" height="4.29"/><rect class="cls-1" x="25.72" y="21.43" width="4.29" height="4.29"/><rect class="cls-1" x="25.72" y="17.14" width="4.29" height="4.29"/><rect class="cls-1" x="30" y="17.14" width="4.29" height="4.29"/><rect class="cls-1" x="30" y="21.43" width="4.29" height="4.29"/><rect class="cls-1" x="30" y="25.72" width="4.29" height="4.29"/><rect class="cls-1" x="25.72" y="25.72" width="4.29" height="4.29"/><rect class="cls-1" x="25.72" y="30" width="4.29" height="4.29"/><rect class="cls-1" x="30" y="30" width="4.29" height="4.29"/><rect class="cls-1" x="34.29" y="30" width="4.29" height="4.29"/><rect class="cls-1" x="34.29" y="25.72" width="4.29" height="4.29"/><rect class="cls-1" x="34.29" y="21.43" width="4.29" height="4.29"/><rect class="cls-1" x="34.29" y="17.14" width="4.29" height="4.29"/><rect class="cls-1" x="30" width="4.29" height="4.29"/><rect class="cls-1" x="34.29" width="4.29" height="4.29"/><rect class="cls-1" x="38.57" y="4.29" width="4.29" height="4.29"/><rect class="cls-1" x="38.57" y="8.57" width="4.29" height="4.29"/><rect class="cls-1" x="47.15" y="8.57" width="4.29" height="4.29"/><rect class="cls-1" x="42.86" y="8.57" width="4.29" height="4.29"/><rect class="cls-1" x="47.15" y="12.86" width="4.29" height="4.29"/><rect class="cls-1" x="47.15" y="17.14" width="4.29" height="4.29"/><rect class="cls-1" x="42.86" y="17.14" width="4.29" height="4.29"/><rect class="cls-1" x="42.86" y="12.86" width="4.29" height="4.29"/><rect class="cls-1" x="47.15" y="21.43" width="4.29" height="4.29"/><rect class="cls-1" x="42.86" y="21.43" width="4.29" height="4.29"/><rect class="cls-1" x="42.86" y="25.72" width="4.29" height="4.29"/><rect class="cls-1" x="17.14" y="30" width="4.29" height="4.29"/></g></g></svg>