<svg xmlns="http://www.w3.org/2000/svg" viewBox="0 0 909.96 909.96"><defs><style>.cls-1,.cls-2{fill:#fff;}.cls-2{opacity:0.06;}.cls-3{fill:none;stroke:#fff;stroke-miterlimit:10;stroke-width:2px;stroke-dasharray:19.97 19.97;}</style></defs><title>stars</title><g id="Calque_2" data-name="Calque 2"><g id="Calque_1-2" data-name="Calque 1"><path class="cls-1" d="M502,351.25c15.44.56,18.05-6.14,18.05-16.37-.11,11,5.2,17.12,15.81,16.38-10.61-.38-15.81,7.62-15.81,15.62C519.89,359.07,517.1,351.81,502,351.25Z"/><path class="cls-1" d="M526.18,547.56c8.33.3,9.73-3.31,9.73-8.83-.06,5.92,2.81,9.23,8.53,8.83-5.72-.2-8.53,4.11-8.53,8.42C535.81,551.77,534.31,547.86,526.18,547.56Z"/><path class="cls-1" d="M409.77,427.56c9.55.34,11.16-3.8,11.16-10.13-.07,6.79,3.22,10.59,9.77,10.13-6.55-.23-9.77,4.71-9.77,9.66C420.81,432.39,419.09,427.9,409.77,427.56Z"/><path class="cls-1" d="M422.54,490.94c7.45.27,8.7-3,8.7-7.89-.05,5.29,2.51,8.25,7.63,7.89-5.12-.18-7.63,3.68-7.63,7.54C431.15,494.71,429.81,491.21,422.54,490.94Z"/><path class="cls-1" d="M407,237.25c7.09.25,8.29-2.82,8.29-7.52-.05,5,2.39,7.86,7.25,7.52-4.86-.18-7.25,3.5-7.25,7.17C415.2,240.83,413.92,237.5,407,237.25Z"/><path class="cls-1" d="M368.25,229.84c4.65.17,5.43-1.84,5.43-4.92,0,3.3,1.57,5.15,4.75,4.93a4.44,4.44,0,0,0-4.75,4.69C373.62,232.19,372.78,230,368.25,229.84Z"/><path class="cls-1" d="M391.68,128.24c8.36.31,9.77-3.32,9.77-8.85-.06,5.94,2.82,9.26,8.55,8.86-5.73-.21-8.55,4.12-8.55,8.45C401.35,132.47,399.84,128.55,391.68,128.24Z"/><path class="cls-1" d="M380.91,593.18c15.44.55,18-6.14,18-16.38-.11,11,5.21,17.12,15.81,16.38C404.17,592.8,399,600.8,399,608.8,398.77,601,396,593.73,380.91,593.18Z"/><path class="cls-1" d="M393.3,341.15c3.18.11,3.72-1.27,3.72-3.38,0,2.27,1.07,3.53,3.26,3.38a3,3,0,0,0-3.26,3.22C397,342.76,396.41,341.26,393.3,341.15Z"/><path class="cls-1" d="M350.31,396.07c4.42.16,5.16-1.75,5.16-4.68,0,3.14,1.49,4.89,4.52,4.68a4.23,4.23,0,0,0-4.52,4.47C355.42,398.31,354.62,396.23,350.31,396.07Z"/><path class="cls-1" d="M321,443.45c5.07.18,5.93-2,5.93-5.38,0,3.61,1.71,5.62,5.19,5.38a4.85,4.85,0,0,0-5.19,5.13C326.82,446,325.9,443.63,321,443.45Z"/><path class="cls-2" d="M888.31,594C829.55,777.3,657.75,910,455,910,203.7,910,0,706.26,0,455S203.7,0,455,0,910,203.7,910,455A454.52,454.52,0,0,1,888.31,594"/><circle class="cls-2" cx="451.04" cy="472.74" r="351.64"/><circle class="cls-2" cx="468.73" cy="458.36" r="202.88"/><circle class="cls-3" cx="468.73" cy="454.98" r="266.92" transform="translate(-184.43 464.7) rotate(-45)"/><path class="cls-1" d="M661.76,512.61c15.44.56,18-6.14,18-16.37-.11,11,5.21,17.11,15.82,16.37-10.61-.37-15.82,7.63-15.82,15.63C679.62,520.42,676.83,513.17,661.76,512.61Z"/><path class="cls-1" d="M644.83,147.87c10.53.38,12.31-4.19,12.31-11.17-.07,7.49,3.55,11.68,10.79,11.18-7.24-.26-10.79,5.2-10.79,10.66C657,153.2,655.11,148.25,644.83,147.87Z"/><path class="cls-1" d="M627.38,438.33c10.53.38,12.31-4.19,12.31-11.18-.07,7.49,3.56,11.68,10.79,11.18-7.23-.26-10.79,5.2-10.79,10.66C639.56,443.66,637.66,438.71,627.38,438.33Z"/><path class="cls-1" d="M590.28,261.36c5.59.21,6.54-2.22,6.54-5.93,0,4,1.88,6.2,5.73,5.94-3.85-.14-5.73,2.76-5.73,5.66C596.75,264.2,595.74,261.57,590.28,261.36Z"/><path class="cls-1" d="M785.75,314.29c8.23.3,9.62-3.27,9.62-8.72-.06,5.85,2.78,9.12,8.43,8.72-5.65-.2-8.43,4.07-8.43,8.33C795.27,318.46,793.78,314.59,785.75,314.29Z"/></g></g></svg>